<mxfile host="app.diagrams.net" modified="2024-07-04T22:15:41.619Z" agent="Mozilla/5.0 (Windows NT 10.0; Win64; x64) AppleWebKit/537.36 (KHTML, like Gecko) Chrome/126.0.0.0 Safari/537.36" etag="olv7FIHkRB0aGW_vlM9c" version="24.6.4" type="device">
  <diagram name="PÃ¡gina-1" id="QR-ZaF9ABDMnKaOvBm1R">
    <mxGraphModel dx="1230" dy="522" grid="1" gridSize="9" guides="1" tooltips="1" connect="1" arrows="1" fold="1" page="1" pageScale="1" pageWidth="583" pageHeight="827" math="0" shadow="0">
      <root>
        <mxCell id="0" />
        <mxCell id="1" parent="0" />
        <mxCell id="l-7kTETXwhMbbzR1VRN9-1" value="Actor" style="whiteSpace=wrap;html=1;align=center;" vertex="1" parent="1">
          <mxGeometry x="240" y="200" width="100" height="40" as="geometry" />
        </mxCell>
        <mxCell id="l-7kTETXwhMbbzR1VRN9-3" value="Edad" style="ellipse;whiteSpace=wrap;html=1;align=center;dashed=1;" vertex="1" parent="1">
          <mxGeometry x="190" y="50" width="100" height="40" as="geometry" />
        </mxCell>
        <mxCell id="l-7kTETXwhMbbzR1VRN9-4" value="FechaNacimiento" style="ellipse;whiteSpace=wrap;html=1;align=center;" vertex="1" parent="1">
          <mxGeometry x="330" y="40" width="150" height="40" as="geometry" />
        </mxCell>
        <mxCell id="l-7kTETXwhMbbzR1VRN9-5" value="Telefono&amp;nbsp;" style="ellipse;shape=doubleEllipse;margin=3;whiteSpace=wrap;html=1;align=center;" vertex="1" parent="1">
          <mxGeometry x="380" y="120" width="100" height="40" as="geometry" />
        </mxCell>
        <mxCell id="l-7kTETXwhMbbzR1VRN9-6" value="" style="endArrow=none;html=1;rounded=0;exitX=0.5;exitY=1;exitDx=0;exitDy=0;entryX=0;entryY=0;entryDx=0;entryDy=0;" edge="1" parent="1" source="l-7kTETXwhMbbzR1VRN9-110" target="l-7kTETXwhMbbzR1VRN9-1">
          <mxGeometry relative="1" as="geometry">
            <mxPoint x="140" y="150" as="sourcePoint" />
            <mxPoint x="160" y="240" as="targetPoint" />
          </mxGeometry>
        </mxCell>
        <mxCell id="l-7kTETXwhMbbzR1VRN9-7" value="" style="endArrow=none;html=1;rounded=0;exitX=0.5;exitY=1;exitDx=0;exitDy=0;entryX=0.5;entryY=0;entryDx=0;entryDy=0;" edge="1" parent="1" source="l-7kTETXwhMbbzR1VRN9-3" target="l-7kTETXwhMbbzR1VRN9-1">
          <mxGeometry relative="1" as="geometry">
            <mxPoint x="110" y="230" as="sourcePoint" />
            <mxPoint x="270" y="230" as="targetPoint" />
          </mxGeometry>
        </mxCell>
        <mxCell id="l-7kTETXwhMbbzR1VRN9-8" value="" style="endArrow=none;html=1;rounded=0;exitX=0;exitY=0.5;exitDx=0;exitDy=0;" edge="1" parent="1" source="l-7kTETXwhMbbzR1VRN9-4">
          <mxGeometry relative="1" as="geometry">
            <mxPoint x="110" y="230" as="sourcePoint" />
            <mxPoint x="340" y="200" as="targetPoint" />
          </mxGeometry>
        </mxCell>
        <mxCell id="l-7kTETXwhMbbzR1VRN9-10" value="" style="endArrow=none;html=1;rounded=0;entryX=0;entryY=0.5;entryDx=0;entryDy=0;exitX=1;exitY=0.5;exitDx=0;exitDy=0;" edge="1" parent="1" source="l-7kTETXwhMbbzR1VRN9-1" target="l-7kTETXwhMbbzR1VRN9-5">
          <mxGeometry relative="1" as="geometry">
            <mxPoint x="340" y="210" as="sourcePoint" />
            <mxPoint x="380" y="230" as="targetPoint" />
          </mxGeometry>
        </mxCell>
        <mxCell id="l-7kTETXwhMbbzR1VRN9-12" value="Actua" style="shape=rhombus;perimeter=rhombusPerimeter;whiteSpace=wrap;html=1;align=center;" vertex="1" parent="1">
          <mxGeometry x="450" y="190" width="80" height="60" as="geometry" />
        </mxCell>
        <mxCell id="l-7kTETXwhMbbzR1VRN9-13" value="" style="edgeStyle=entityRelationEdgeStyle;fontSize=12;html=1;endArrow=ERoneToMany;rounded=0;exitX=0;exitY=0.5;exitDx=0;exitDy=0;entryX=1;entryY=0.5;entryDx=0;entryDy=0;" edge="1" parent="1" source="l-7kTETXwhMbbzR1VRN9-12" target="l-7kTETXwhMbbzR1VRN9-1">
          <mxGeometry width="100" height="100" relative="1" as="geometry">
            <mxPoint x="160" y="280" as="sourcePoint" />
            <mxPoint x="260" y="180" as="targetPoint" />
          </mxGeometry>
        </mxCell>
        <mxCell id="l-7kTETXwhMbbzR1VRN9-14" value="" style="edgeStyle=entityRelationEdgeStyle;fontSize=12;html=1;endArrow=ERoneToMany;rounded=0;entryX=0;entryY=0.5;entryDx=0;entryDy=0;exitX=1;exitY=0.5;exitDx=0;exitDy=0;" edge="1" parent="1" source="l-7kTETXwhMbbzR1VRN9-12" target="l-7kTETXwhMbbzR1VRN9-16">
          <mxGeometry width="100" height="100" relative="1" as="geometry">
            <mxPoint x="580" y="220" as="sourcePoint" />
            <mxPoint x="660" y="219.5" as="targetPoint" />
          </mxGeometry>
        </mxCell>
        <mxCell id="l-7kTETXwhMbbzR1VRN9-16" value="Pelicula" style="whiteSpace=wrap;html=1;align=center;" vertex="1" parent="1">
          <mxGeometry x="641" y="200" width="80" height="40" as="geometry" />
        </mxCell>
        <mxCell id="l-7kTETXwhMbbzR1VRN9-17" value="Nombre" style="ellipse;whiteSpace=wrap;html=1;align=center;" vertex="1" parent="1">
          <mxGeometry x="70" y="200" width="100" height="40" as="geometry" />
        </mxCell>
        <mxCell id="l-7kTETXwhMbbzR1VRN9-19" value="Nombre1" style="ellipse;whiteSpace=wrap;html=1;align=center;" vertex="1" parent="1">
          <mxGeometry x="20" y="270" width="100" height="40" as="geometry" />
        </mxCell>
        <mxCell id="l-7kTETXwhMbbzR1VRN9-20" value="Apellido1" style="ellipse;whiteSpace=wrap;html=1;align=center;" vertex="1" parent="1">
          <mxGeometry x="160" y="270" width="100" height="40" as="geometry" />
        </mxCell>
        <mxCell id="l-7kTETXwhMbbzR1VRN9-21" value="" style="endArrow=none;html=1;rounded=0;entryX=0;entryY=0.5;entryDx=0;entryDy=0;exitX=1;exitY=0;exitDx=0;exitDy=0;" edge="1" parent="1" source="l-7kTETXwhMbbzR1VRN9-17" target="l-7kTETXwhMbbzR1VRN9-1">
          <mxGeometry relative="1" as="geometry">
            <mxPoint x="140" y="310" as="sourcePoint" />
            <mxPoint x="300" y="310" as="targetPoint" />
          </mxGeometry>
        </mxCell>
        <mxCell id="l-7kTETXwhMbbzR1VRN9-22" value="" style="endArrow=none;html=1;rounded=0;exitX=0.5;exitY=0;exitDx=0;exitDy=0;entryX=0;entryY=1;entryDx=0;entryDy=0;" edge="1" parent="1" source="l-7kTETXwhMbbzR1VRN9-19" target="l-7kTETXwhMbbzR1VRN9-17">
          <mxGeometry relative="1" as="geometry">
            <mxPoint x="140" y="310" as="sourcePoint" />
            <mxPoint x="300" y="310" as="targetPoint" />
          </mxGeometry>
        </mxCell>
        <mxCell id="l-7kTETXwhMbbzR1VRN9-23" value="" style="endArrow=none;html=1;rounded=0;exitX=1;exitY=1;exitDx=0;exitDy=0;entryX=0.5;entryY=0;entryDx=0;entryDy=0;" edge="1" parent="1" source="l-7kTETXwhMbbzR1VRN9-17" target="l-7kTETXwhMbbzR1VRN9-20">
          <mxGeometry relative="1" as="geometry">
            <mxPoint x="140" y="310" as="sourcePoint" />
            <mxPoint x="300" y="310" as="targetPoint" />
          </mxGeometry>
        </mxCell>
        <mxCell id="l-7kTETXwhMbbzR1VRN9-24" value="N" style="text;html=1;align=center;verticalAlign=middle;resizable=0;points=[];autosize=1;strokeColor=none;fillColor=none;" vertex="1" parent="1">
          <mxGeometry x="415" y="190" width="30" height="30" as="geometry" />
        </mxCell>
        <mxCell id="l-7kTETXwhMbbzR1VRN9-25" value="M" style="text;html=1;align=center;verticalAlign=middle;resizable=0;points=[];autosize=1;strokeColor=none;fillColor=none;" vertex="1" parent="1">
          <mxGeometry x="530" y="190" width="30" height="30" as="geometry" />
        </mxCell>
        <mxCell id="l-7kTETXwhMbbzR1VRN9-109" value="Titulo" style="ellipse;whiteSpace=wrap;html=1;align=center;" vertex="1" parent="1">
          <mxGeometry x="675" y="90" width="100" height="40" as="geometry" />
        </mxCell>
        <mxCell id="l-7kTETXwhMbbzR1VRN9-110" value="Codigo" style="ellipse;whiteSpace=wrap;html=1;align=center;fontStyle=4;" vertex="1" parent="1">
          <mxGeometry x="70" y="108" width="100" height="40" as="geometry" />
        </mxCell>
        <mxCell id="l-7kTETXwhMbbzR1VRN9-111" value="Codigo" style="ellipse;whiteSpace=wrap;html=1;align=center;fontStyle=4;" vertex="1" parent="1">
          <mxGeometry x="549" y="108" width="100" height="40" as="geometry" />
        </mxCell>
        <mxCell id="l-7kTETXwhMbbzR1VRN9-112" value="Direeccion" style="ellipse;whiteSpace=wrap;html=1;align=center;" vertex="1" parent="1">
          <mxGeometry x="765" y="148" width="100" height="40" as="geometry" />
        </mxCell>
        <mxCell id="l-7kTETXwhMbbzR1VRN9-113" value="" style="endArrow=none;html=1;rounded=0;exitX=0.5;exitY=1;exitDx=0;exitDy=0;entryX=0;entryY=0;entryDx=0;entryDy=0;" edge="1" parent="1" source="l-7kTETXwhMbbzR1VRN9-111" target="l-7kTETXwhMbbzR1VRN9-16">
          <mxGeometry relative="1" as="geometry">
            <mxPoint x="657" y="225" as="sourcePoint" />
            <mxPoint x="817" y="225" as="targetPoint" />
          </mxGeometry>
        </mxCell>
        <mxCell id="l-7kTETXwhMbbzR1VRN9-114" value="" style="endArrow=none;html=1;rounded=0;exitX=0.5;exitY=0;exitDx=0;exitDy=0;entryX=0.5;entryY=1;entryDx=0;entryDy=0;" edge="1" parent="1" source="l-7kTETXwhMbbzR1VRN9-16" target="l-7kTETXwhMbbzR1VRN9-109">
          <mxGeometry relative="1" as="geometry">
            <mxPoint x="657" y="225" as="sourcePoint" />
            <mxPoint x="817" y="225" as="targetPoint" />
          </mxGeometry>
        </mxCell>
        <mxCell id="l-7kTETXwhMbbzR1VRN9-115" value="" style="endArrow=none;html=1;rounded=0;exitX=1;exitY=0.5;exitDx=0;exitDy=0;entryX=0;entryY=0.5;entryDx=0;entryDy=0;" edge="1" parent="1" source="l-7kTETXwhMbbzR1VRN9-16" target="l-7kTETXwhMbbzR1VRN9-112">
          <mxGeometry relative="1" as="geometry">
            <mxPoint x="657" y="225" as="sourcePoint" />
            <mxPoint x="817" y="225" as="targetPoint" />
          </mxGeometry>
        </mxCell>
        <mxCell id="l-7kTETXwhMbbzR1VRN9-116" value="Produce" style="shape=rhombus;perimeter=rhombusPerimeter;whiteSpace=wrap;html=1;align=center;" vertex="1" parent="1">
          <mxGeometry x="621" y="270" width="120" height="60" as="geometry" />
        </mxCell>
        <mxCell id="l-7kTETXwhMbbzR1VRN9-125" value="" style="endArrow=ERmany;html=1;rounded=0;entryX=0.5;entryY=1;entryDx=0;entryDy=0;endFill=0;" edge="1" parent="1" source="l-7kTETXwhMbbzR1VRN9-116" target="l-7kTETXwhMbbzR1VRN9-16">
          <mxGeometry relative="1" as="geometry">
            <mxPoint x="648" y="360" as="sourcePoint" />
            <mxPoint x="808" y="360" as="targetPoint" />
          </mxGeometry>
        </mxCell>
        <mxCell id="l-7kTETXwhMbbzR1VRN9-127" value="Estudio" style="whiteSpace=wrap;html=1;align=center;" vertex="1" parent="1">
          <mxGeometry x="631" y="360" width="100" height="40" as="geometry" />
        </mxCell>
        <mxCell id="l-7kTETXwhMbbzR1VRN9-128" value="Codigo" style="ellipse;whiteSpace=wrap;html=1;align=center;fontStyle=4;" vertex="1" parent="1">
          <mxGeometry x="460" y="360" width="100" height="40" as="geometry" />
        </mxCell>
        <mxCell id="l-7kTETXwhMbbzR1VRN9-129" value="Nombre" style="ellipse;whiteSpace=wrap;html=1;align=center;" vertex="1" parent="1">
          <mxGeometry x="530" y="432" width="100" height="40" as="geometry" />
        </mxCell>
        <mxCell id="l-7kTETXwhMbbzR1VRN9-130" value="Domicilio" style="ellipse;whiteSpace=wrap;html=1;align=center;" vertex="1" parent="1">
          <mxGeometry x="775" y="405" width="100" height="40" as="geometry" />
        </mxCell>
        <mxCell id="l-7kTETXwhMbbzR1VRN9-131" value="" style="endArrow=none;html=1;rounded=0;exitX=0.5;exitY=1;exitDx=0;exitDy=0;entryX=0.5;entryY=0;entryDx=0;entryDy=0;" edge="1" parent="1" source="l-7kTETXwhMbbzR1VRN9-116" target="l-7kTETXwhMbbzR1VRN9-127">
          <mxGeometry relative="1" as="geometry">
            <mxPoint x="657" y="369" as="sourcePoint" />
            <mxPoint x="817" y="369" as="targetPoint" />
          </mxGeometry>
        </mxCell>
        <mxCell id="l-7kTETXwhMbbzR1VRN9-132" value="" style="endArrow=none;html=1;rounded=0;exitX=0;exitY=0.5;exitDx=0;exitDy=0;entryX=1;entryY=0.5;entryDx=0;entryDy=0;" edge="1" parent="1" source="l-7kTETXwhMbbzR1VRN9-127" target="l-7kTETXwhMbbzR1VRN9-128">
          <mxGeometry relative="1" as="geometry">
            <mxPoint x="657" y="369" as="sourcePoint" />
            <mxPoint x="817" y="369" as="targetPoint" />
          </mxGeometry>
        </mxCell>
        <mxCell id="l-7kTETXwhMbbzR1VRN9-133" value="" style="endArrow=none;html=1;rounded=0;exitX=0;exitY=1;exitDx=0;exitDy=0;entryX=1;entryY=0;entryDx=0;entryDy=0;" edge="1" parent="1" source="l-7kTETXwhMbbzR1VRN9-127" target="l-7kTETXwhMbbzR1VRN9-129">
          <mxGeometry relative="1" as="geometry">
            <mxPoint x="657" y="369" as="sourcePoint" />
            <mxPoint x="817" y="369" as="targetPoint" />
          </mxGeometry>
        </mxCell>
        <mxCell id="l-7kTETXwhMbbzR1VRN9-134" value="" style="endArrow=none;html=1;rounded=0;exitX=1;exitY=0.75;exitDx=0;exitDy=0;entryX=0;entryY=0;entryDx=0;entryDy=0;" edge="1" parent="1" source="l-7kTETXwhMbbzR1VRN9-127" target="l-7kTETXwhMbbzR1VRN9-130">
          <mxGeometry relative="1" as="geometry">
            <mxPoint x="657" y="369" as="sourcePoint" />
            <mxPoint x="817" y="369" as="targetPoint" />
          </mxGeometry>
        </mxCell>
        <mxCell id="l-7kTETXwhMbbzR1VRN9-135" value="Pais" style="ellipse;whiteSpace=wrap;html=1;align=center;" vertex="1" parent="1">
          <mxGeometry x="909" y="441" width="100" height="40" as="geometry" />
        </mxCell>
        <mxCell id="l-7kTETXwhMbbzR1VRN9-136" value="Ciudad" style="ellipse;whiteSpace=wrap;html=1;align=center;" vertex="1" parent="1">
          <mxGeometry x="783" y="481" width="100" height="40" as="geometry" />
        </mxCell>
        <mxCell id="l-7kTETXwhMbbzR1VRN9-137" value="Direccion" style="ellipse;whiteSpace=wrap;html=1;align=center;" vertex="1" parent="1">
          <mxGeometry x="665" y="459" width="100" height="40" as="geometry" />
        </mxCell>
        <mxCell id="l-7kTETXwhMbbzR1VRN9-138" value="" style="endArrow=none;html=1;rounded=0;entryX=0;entryY=1;entryDx=0;entryDy=0;exitX=0.5;exitY=0;exitDx=0;exitDy=0;" edge="1" parent="1" source="l-7kTETXwhMbbzR1VRN9-137" target="l-7kTETXwhMbbzR1VRN9-130">
          <mxGeometry relative="1" as="geometry">
            <mxPoint x="711" y="369" as="sourcePoint" />
            <mxPoint x="871" y="369" as="targetPoint" />
          </mxGeometry>
        </mxCell>
        <mxCell id="l-7kTETXwhMbbzR1VRN9-139" value="" style="endArrow=none;html=1;rounded=0;exitX=0.5;exitY=1;exitDx=0;exitDy=0;entryX=0.5;entryY=0;entryDx=0;entryDy=0;" edge="1" parent="1" source="l-7kTETXwhMbbzR1VRN9-130" target="l-7kTETXwhMbbzR1VRN9-136">
          <mxGeometry relative="1" as="geometry">
            <mxPoint x="711" y="369" as="sourcePoint" />
            <mxPoint x="871" y="369" as="targetPoint" />
          </mxGeometry>
        </mxCell>
        <mxCell id="l-7kTETXwhMbbzR1VRN9-140" value="" style="endArrow=none;html=1;rounded=0;exitX=1;exitY=1;exitDx=0;exitDy=0;entryX=0;entryY=0;entryDx=0;entryDy=0;" edge="1" parent="1" source="l-7kTETXwhMbbzR1VRN9-130" target="l-7kTETXwhMbbzR1VRN9-135">
          <mxGeometry relative="1" as="geometry">
            <mxPoint x="810" y="369" as="sourcePoint" />
            <mxPoint x="970" y="369" as="targetPoint" />
          </mxGeometry>
        </mxCell>
        <mxCell id="l-7kTETXwhMbbzR1VRN9-141" value="N" style="text;html=1;align=center;verticalAlign=middle;resizable=0;points=[];autosize=1;strokeColor=none;fillColor=none;" vertex="1" parent="1">
          <mxGeometry x="619" y="261" width="27" height="27" as="geometry" />
        </mxCell>
        <mxCell id="l-7kTETXwhMbbzR1VRN9-142" value="1" style="text;html=1;align=center;verticalAlign=middle;resizable=0;points=[];autosize=1;strokeColor=none;fillColor=none;" vertex="1" parent="1">
          <mxGeometry x="718" y="261" width="27" height="27" as="geometry" />
        </mxCell>
      </root>
    </mxGraphModel>
  </diagram>
</mxfile>
